<svg width="46" height="46" fill="none" xmlns="http://www.w3.org/2000/svg"><path d="M23 7.667C14.545 7.667 7.666 14.546 7.666 23c0 8.455 6.88 15.334 15.334 15.334S38.333 31.454 38.333 23 31.455 7.667 23 7.667Zm7.844 5.727a.956.956 0 0 1 .674-.315c.223-.025.51.083.697.261a13.344 13.344 0 0 1 3.904 6.928.96.96 0 0 1-.498 1.052c-.938.485-2.051.72-3.118.72-1.391 0-2.709-.399-3.472-1.162-1.625-1.624-.947-4.422 1.813-7.484ZM15.155 32.756a.958.958 0 0 1-.673.316h-.038a.958.958 0 0 1-.659-.261 13.344 13.344 0 0 1-3.904-6.93.96.96 0 0 1 .498-1.051c2.16-1.115 5.24-.907 6.59.442 1.623 1.624.945 4.422-1.814 7.484Zm1.814-11.878c-.764.763-2.081 1.162-3.472 1.162-1.067 0-2.179-.235-3.118-.72a.96.96 0 0 1-.498-1.052 13.345 13.345 0 0 1 3.904-6.928c.187-.178.463-.288.697-.261.258.01.501.124.673.315 2.761 3.062 3.439 5.86 1.814 7.484Zm10.115 14.901a13.431 13.431 0 0 1-8.168 0 .96.96 0 0 1-.667-.98c.24-3.448 2.282-6.049 4.75-6.049 2.47 0 4.512 2.6 4.751 6.05a.961.961 0 0 1-.666.98ZM19.166 23A3.838 3.838 0 0 1 23 19.167 3.838 3.838 0 0 1 26.833 23 3.838 3.838 0 0 1 23 26.834 3.838 3.838 0 0 1 19.166 23Zm8.584-11.724c-.24 3.448-2.281 6.049-4.75 6.049s-4.511-2.6-4.75-6.049a.957.957 0 0 1 .664-.979 13.444 13.444 0 0 1 8.172 0 .957.957 0 0 1 .664.98Zm8.37 14.454a13.344 13.344 0 0 1-3.904 6.93.957.957 0 0 1-.66.261h-.037a.956.956 0 0 1-.674-.316c-2.76-3.062-3.438-5.86-1.813-7.484 1.35-1.35 4.428-1.556 6.59-.443a.96.96 0 0 1 .498 1.052Z" fill="#000"/><path d="M23 0C10.317 0 0 10.318 0 23s10.317 23 23 23 23-10.318 23-23S35.683 0 23 0Zm0 40.25c-9.512 0-17.25-7.739-17.25-17.25S13.488 5.75 23 5.75 40.25 13.489 40.25 23 32.512 40.25 23 40.25Z" fill="#fff"/></svg>