<svg width="44" height="49" fill="none" xmlns="http://www.w3.org/2000/svg"><path d="M.253 27.017a1.12 1.12 0 0 1 .873-.425h4.282c1.057-2.85 2.434-5.641 3.998-6.695 5.414-3.64 19.772-3.64 25.186 0 1.566 1.055 2.937 3.85 3.999 6.695h4.282c.34 0 .66.156.873.425.214.267.3.62.23.96l-.634 3.142c-.108.535-.57.918-1.103.918H40.97c1.225 1.444 1.819 3.263 1.827 5.082.008 2.248-.827 4.28-2.354 5.717-.017.015-.034.026-.05.04v4.396c0 .953-.757 1.728-1.69 1.728h-3.95c-.932 0-1.69-.775-1.69-1.728v-1.766H10.937v1.766c0 .953-.757 1.728-1.69 1.728h-3.95c-.93 0-1.69-.775-1.69-1.728v-4.31c-1.62-1.516-2.393-3.603-2.403-5.686-.007-1.882.614-3.767 1.91-5.242H1.76c-.535 0-.997-.382-1.103-.918l-.635-3.141a1.18 1.18 0 0 1 .23-.958Zm32.483-4.235c-4.315-2.904-17.157-2.904-21.47 0-.838.562-1.916 2.834-2.904 5.617h27.276c-.986-2.782-2.064-5.053-2.902-5.617Zm5.054 14.77c0-1.877-1.49-3.397-3.325-3.397-1.837 0-3.324 1.52-3.324 3.397 0 1.877 1.487 3.399 3.324 3.399 1.836 0 3.325-1.522 3.325-3.399Zm-28.3 3.399c1.836 0 3.325-1.522 3.325-3.399s-1.489-3.397-3.324-3.397c-1.838 0-3.325 1.52-3.325 3.397 0 1.877 1.49 3.399 3.325 3.399Z" fill="#1E1B1B"/><mask id="a" style="mask-type:alpha" maskUnits="userSpaceOnUse" x="6" y="0" width="25" height="28"><path d="M26.555 14.482a1.76 1.76 0 0 1-.872 1.378 5.57 5.57 0 0 1-1.317.546c.254.875.72 2.14 1.548 3.495.787 1.287.796 2.841.025 4.264-1.137 2.096-3.648 3.504-6.248 3.504-1.786 0-3.374-.84-4.47-2.368-1.568-2.183-1.915-5.404-.93-8.616.915-2.977-.308-4.565-1.117-5.248a3.61 3.61 0 0 1-2.542 1.05c-2.026 0-3.67-1.679-3.67-3.75 0-2.073 1.644-3.752 3.67-3.752 2.027 0 3.669 1.68 3.669 3.751 0 .292-.036.574-.097.847 1.528 1.142 3.291 3.714 2.057 7.734-.778 2.535-.54 5.116.624 6.735.493.688 1.381 1.507 2.807 1.507 1.843 0 3.67-.994 4.442-2.417.285-.525.52-1.32.03-2.123a16.584 16.584 0 0 1-1.905-4.49 5.41 5.41 0 0 1-1.776-.608 1.752 1.752 0 0 1-.892-1.327c-2.425-2.24-3.544-6.277-3.609-6.513-.13-.485.093-.983.51-1.21-.335-3.03.762-4.558 1.424-5.18a.769.769 0 0 1 .314-.77L19.446.11a.601.601 0 0 1 .892.24l.58 1.146c.174.346.02.714-.345.824l-1.375.415c-.349.105-.766-.065-.964-.378-.548.59-1.337 1.905-1.065 4.412.373.073.694.35.802.751.33 1.213 1.285 3.717 2.703 5.22.45-.179.97-.17 1.43.08.299.164.592.246.892.253h.062c.317-.007.627-.099.944-.28.448-.257.96-.28 1.41-.117 1.385-1.508 2.32-3.96 2.645-5.156.108-.399.43-.678.802-.75.273-2.508-.516-3.822-1.065-4.412-.198.312-.615.483-.964.377l-1.375-.414c-.364-.11-.52-.48-.344-.825L25.69.35a.601.601 0 0 1 .891-.24L27.8.922a.77.77 0 0 1 .314.77c.66.622 1.759 2.148 1.424 5.18.417.226.64.724.51 1.21-.064.23-1.15 4.139-3.492 6.399ZM10.632 7.27c-.791 0-1.433.655-1.433 1.465s.642 1.466 1.433 1.466 1.433-.656 1.433-1.466c0-.81-.641-1.465-1.433-1.465Z" fill="#000"/></mask><g mask="url(#a)"><path d="M51.515-2.656H18.486L15.1 6.212l3.386 13.326h33.029V-2.656Z" fill="#1E1B1B"/></g></svg>