<svg width="55" height="39" fill="none" xmlns="http://www.w3.org/2000/svg"><path d="M53.834 11.857a1.393 1.393 0 0 0-1.074-.511h-5.27c-1.3-3.43-2.994-6.79-4.92-8.06-6.661-4.382-24.33-4.382-30.992 0-1.927 1.27-3.614 4.635-4.922 8.06h-5.27c-.418 0-.812.188-1.074.511a1.379 1.379 0 0 0-.283 1.157l.78 3.782A1.386 1.386 0 0 0 2.168 17.9h1.561c-1.507 1.738-2.237 3.927-2.247 6.118-.01 2.706 1.017 5.151 2.896 6.882.02.018.042.03.061.048v5.292c0 1.146.932 2.08 2.08 2.08h4.86c1.148 0 2.08-.934 2.08-2.08v-2.127h27.23v2.127c0 1.146.931 2.08 2.08 2.08h4.86c1.145 0 2.08-.934 2.08-2.08v-5.188c1.993-1.826 2.945-4.338 2.958-6.846.008-2.265-.756-4.535-2.351-6.31h1.665a1.38 1.38 0 0 0 1.357-1.106l.782-3.78c.08-.406-.021-.83-.285-1.154ZM13.861 6.76c5.31-3.495 21.113-3.495 26.42 0 1.032.676 2.358 3.412 3.574 6.761H10.29c1.213-3.348 2.54-6.082 3.571-6.761Zm-6.22 17.78a4.09 4.09 0 0 1 4.092-4.09 4.09 4.09 0 1 1 0 8.18 4.092 4.092 0 0 1-4.091-4.09Zm34.825 4.091a4.092 4.092 0 1 1 .001-8.183 4.092 4.092 0 0 1 0 8.183Z" fill="#1E1B1B"/></svg>