<svg width="46" height="46" fill="none" xmlns="http://www.w3.org/2000/svg"><path d="M45.855 20.446c-.073-.646-.827-1.133-1.479-1.133-2.107 0-3.978-1.237-4.762-3.151a5.124 5.124 0 0 1 1.286-5.687c.494-.452.555-1.21.14-1.735a22.77 22.77 0 0 0-3.644-3.68 1.28 1.28 0 0 0-1.748.142c-1.37 1.518-3.833 2.082-5.736 1.288a5.108 5.108 0 0 1-3.106-4.993 1.276 1.276 0 0 0-1.13-1.344 22.952 22.952 0 0 0-5.174-.014 1.28 1.28 0 0 0-1.139 1.317c.075 2.132-1.189 4.104-3.15 4.907-1.88.768-4.325.208-5.693-1.297a1.282 1.282 0 0 0-1.736-.145 22.864 22.864 0 0 0-3.72 3.678 1.28 1.28 0 0 0 .137 1.748 5.097 5.097 0 0 1 1.286 5.739c-.794 1.89-2.757 3.109-5.004 3.109-.73-.024-1.249.466-1.33 1.13a23.056 23.056 0 0 0-.01 5.23c.074.648.85 1.13 1.51 1.13 2.002-.05 3.925 1.19 4.732 3.152.804 1.96.286 4.245-1.286 5.688a1.277 1.277 0 0 0-.14 1.732 22.85 22.85 0 0 0 3.638 3.682 1.279 1.279 0 0 0 1.75-.139c1.377-1.522 3.84-2.085 5.734-1.29a5.102 5.102 0 0 1 3.113 4.992 1.276 1.276 0 0 0 1.128 1.344 22.786 22.786 0 0 0 5.175.014 1.28 1.28 0 0 0 1.138-1.317c-.077-2.132 1.19-4.103 3.147-4.905 1.893-.773 4.328-.207 5.696 1.296a1.285 1.285 0 0 0 1.736.145 22.893 22.893 0 0 0 3.72-3.679 1.277 1.277 0 0 0-.136-1.748 5.096 5.096 0 0 1-1.289-5.737c.782-1.866 2.672-3.118 4.705-3.118l.285.007c.66.054 1.266-.454 1.346-1.128.203-1.729.205-3.488.01-5.23ZM23 36.26c-7.324 0-13.26-5.937-13.26-13.26 0-7.323 5.936-13.26 13.26-13.26 7.323 0 13.26 5.937 13.26 13.26 0 2.486-.686 4.81-1.876 6.799l-5.806-5.806a8.11 8.11 0 0 0 .642-3.175 8.074 8.074 0 0 0-2.381-5.748 8.075 8.075 0 0 0-5.748-2.38 8.16 8.16 0 0 0-2.143.286.92.92 0 0 0-.637.641c-.083.313.01.634.255.88 0 0 2.867 2.888 3.826 3.847.1.1.1.34.086.426l-.009.063c-.097 1.055-.283 2.32-.437 2.807l-.061.058-.064.066c-.492.158-1.778.346-2.849.442v-.005l-.048.012a.612.612 0 0 1-.486-.185c-.998-.998-3.752-3.733-3.752-3.733-.247-.246-.5-.298-.67-.298-.393 0-.746.285-.857.693a8.156 8.156 0 0 0 2.098 7.876 8.077 8.077 0 0 0 5.748 2.38 8.111 8.111 0 0 0 3.175-.642l5.869 5.87A13.193 13.193 0 0 1 23 36.26Z" fill="#1E1B1B"/></svg>