<svg width="38" height="46" fill="none" xmlns="http://www.w3.org/2000/svg"><path d="M22.147 8.086h-6.294a18.436 18.436 0 0 1-7.185 5.03v8.244c0 6.973 4.037 13.226 10.332 16.089 6.295-2.863 10.332-9.116 10.332-16.089v-8.244a18.422 18.422 0 0 1-7.185-5.03Zm4.095 11.592-8.386 8.386a1.344 1.344 0 0 1-1.905 0l-4.193-4.192a1.35 1.35 0 0 1 0-1.907 1.35 1.35 0 0 1 1.906 0l3.24 3.24 7.433-7.432a1.347 1.347 0 1 1 1.905 1.905Zm9.82-13.389A10.418 10.418 0 0 1 26.826.72 1.347 1.347 0 0 0 25.635 0h-13.27c-.5 0-.959.277-1.192.719a10.418 10.418 0 0 1-9.243 5.57c-.744 0-1.348.604-1.348 1.348V21.36a25.606 25.606 0 0 0 4.985 15.236 25.602 25.602 0 0 0 13.027 9.341 1.336 1.336 0 0 0 .812 0 25.6 25.6 0 0 0 13.026-9.34 25.606 25.606 0 0 0 4.986-15.237V7.637c0-.744-.612-1.348-1.356-1.348ZM32.027 21.3c0 8.253-4.91 15.634-12.509 18.803a1.347 1.347 0 0 1-1.036 0c-7.6-3.169-12.51-10.55-12.51-18.803v-9.193c0-.582.374-1.098.928-1.28 2.86-.94 5.379-2.67 7.284-5.001.256-.314.64-.495 1.044-.495h7.544c.413 0 .9.32 1.044.495a15.748 15.748 0 0 0 7.284 5.001c.395.13.696.429.838.802l.005.011c.034.093.058.19.072.29l.003.03c.006.049.01.097.01.147V21.3Z" fill="#1E1B1B"/></svg>