<svg width="34" height="46" fill="none" xmlns="http://www.w3.org/2000/svg"><path d="M33.172 18.193c0-.343-.131-.673-.366-.923L22.024 5.815a1.348 1.348 0 0 0-.981-.424H7.566c-.384 0-.751.164-1.007.452l-5.39 6.064c-.22.247-.34.566-.34.896v23.763c0 1.035.39 1.98 1.031 2.696a4.027 4.027 0 0 0-1.032 2.695A4.048 4.048 0 0 0 4.871 46H29.13a4.048 4.048 0 0 0 4.043-4.043c0-1.034-.39-1.98-1.032-2.695a4.026 4.026 0 0 0 1.032-2.696V18.193ZM17 37.913a4.048 4.048 0 0 1-4.043-4.042c0-.555.159-1.567 1.53-3.93a37.168 37.168 0 0 1 1.404-2.227 1.348 1.348 0 0 1 2.218 0c.029.042.712 1.033 1.404 2.227 1.371 2.363 1.53 3.375 1.53 3.93A4.048 4.048 0 0 1 17 37.914Zm9.935-15.899a2.684 2.684 0 0 1-1.848.733 2.686 2.686 0 0 1-1.962-.847l-6.19-6.577a2.695 2.695 0 1 1 3.925-3.695l6.19 6.576a2.695 2.695 0 0 1-.115 3.81Z" fill="#1E1B1B"/><path d="M15.652 33.872a1.349 1.349 0 0 0 2.696 0c-.012-.413-.572-1.587-1.348-2.894-.776 1.308-1.337 2.482-1.348 2.894Zm0-33.872H7.566C6.822 0 6.22.603 6.22 1.348v1.347H17V1.348C17 .603 16.397 0 15.652 0Z" fill="#1E1B1B"/></svg>