<svg width="42" height="42" fill="none" xmlns="http://www.w3.org/2000/svg"><path d="M32.977 7.137a3.286 3.286 0 0 1-3.041-2.051H27.07V2.625h2.866a3.286 3.286 0 0 1 3.04-2.05 3.285 3.285 0 0 1 3.282 3.28 3.285 3.285 0 0 1-3.281 3.282Zm5.742 6.973a3.26 3.26 0 0 1-1.498-.364l-3.046 2.54c-.222.183-.5.284-.788.284H27.07v-2.46h5.871l2.672-2.227a3.285 3.285 0 0 1 3.106-4.336A3.285 3.285 0 0 1 42 10.828a3.285 3.285 0 0 1-3.281 3.281Zm0 10.253a3.286 3.286 0 0 1-3.041-2.05H27.07v-2.461h8.608a3.286 3.286 0 0 1 3.04-2.051A3.285 3.285 0 0 1 42 21.082a3.285 3.285 0 0 1-3.281 3.281Zm-4.544 1.516 3.046 2.539a3.26 3.26 0 0 1 1.498-.363A3.285 3.285 0 0 1 42 31.335a3.285 3.285 0 0 1-3.281 3.282 3.285 3.285 0 0 1-3.106-4.336l-2.672-2.226h-5.87v-2.461h6.316c.288 0 .566.1.788.285Zm-1.198 9.148a3.285 3.285 0 0 1 3.28 3.282 3.285 3.285 0 0 1-3.28 3.28 3.286 3.286 0 0 1-3.041-2.05H27.07v-2.46h2.866a3.286 3.286 0 0 1 3.04-2.052ZM12.305 21.082c0-4.75 3.864-8.613 8.613-8.613 1.32 0 2.572.299 3.691.832v15.562a8.562 8.562 0 0 1-3.691.832c-4.75 0-8.613-3.864-8.613-8.613Z" fill="#1E1B1B"/><path d="M23.379 42h-4.922c-.68 0-1.23-.55-1.23-1.23v-1.602a18.462 18.462 0 0 1-6.487-2.687l-1.133 1.132c-.48.48-1.26.48-1.74 0l-3.48-3.48a1.23 1.23 0 0 1 0-1.74l1.132-1.133a18.461 18.461 0 0 1-2.687-6.487H1.23c-.68 0-1.23-.55-1.23-1.23v-4.922c0-.68.55-1.23 1.23-1.23h1.602a18.464 18.464 0 0 1 2.687-6.487L4.387 9.77a1.23 1.23 0 0 1 0-1.74l3.48-3.48a1.23 1.23 0 0 1 1.74 0l1.133 1.132a18.463 18.463 0 0 1 6.487-2.687v-1.6c0-.68.55-1.23 1.23-1.23h4.922c.68 0 1.23.55 1.23 1.23v9.246a11.023 11.023 0 0 0-3.691-.633c-6.106 0-11.074 4.968-11.074 11.074s4.968 11.074 11.074 11.074a11.01 11.01 0 0 0 3.691-.633v9.247c0 .68-.55 1.23-1.23 1.23Z" fill="#1E1B1B"/></svg>