<svg width="20" height="20" fill="none" xmlns="http://www.w3.org/2000/svg"><path d="M17.76 13.92c-1.296-1.033-2.612-1.659-3.893-.627l-.764.623c-.56.453-1.6 2.568-5.621-1.743-4.02-4.306-1.628-4.977-1.068-5.425l.77-.625c1.273-1.034.792-2.336-.127-3.676l-.554-.812C5.58.298 4.575-.58 3.298.453l-.69.562A6.01 6.01 0 0 0 .083 5.01c-.46 2.84.993 6.091 4.321 9.659 3.325 3.569 6.58 5.362 9.664 5.33 2.562-.025 4.11-1.307 4.594-1.773l.693-.562c1.273-1.032.482-2.083-.815-3.119l-.78-.625Z" fill="#fff"/></svg>