<svg width="71" height="70" fill="none" xmlns="http://www.w3.org/2000/svg"><ellipse cx="35.763" cy="35" rx="34.831" ry="35" fill="#5CBA99"/><path d="M51.904 43v-4.248c0-.336-.03-.68-.088-1.032a3.093 3.093 0 0 0-.32-.992 1.878 1.878 0 0 0-.664-.736c-.282-.187-.653-.28-1.112-.28-.298 0-.581.05-.848.152a1.766 1.766 0 0 0-.704.472 2.386 2.386 0 0 0-.472.864c-.112.357-.168.792-.168 1.304l-1.04-.392c0-.784.147-1.475.44-2.072a3.306 3.306 0 0 1 1.264-1.408c.55-.336 1.214-.504 1.992-.504.598 0 1.099.096 1.504.288.405.192.733.445.984.76.256.31.45.648.584 1.016.133.368.224.728.272 1.08.048.352.072.661.072.928V43h-1.696Zm-6.072 0V31.48h1.496v6.216h.2V43h-1.696Zm9.852 0v-8.64h1.488v2.096l-.208-.272a3.17 3.17 0 0 1 .416-.76c.17-.235.368-.427.592-.576a2.52 2.52 0 0 1 .728-.368c.272-.09.55-.144.832-.16a3.18 3.18 0 0 1 .816.04v1.568a2.71 2.71 0 0 0-.944-.064 2.065 2.065 0 0 0-.944.328 2.12 2.12 0 0 0-.648.64 2.69 2.69 0 0 0-.336.84 4.34 4.34 0 0 0-.104.968V43h-1.688Zm-40.614.988.011-2.232 7.524-6.744c.608-.536 1.02-1.048 1.236-1.536.224-.488.336-.976.336-1.464 0-.616-.136-1.168-.408-1.656a3.065 3.065 0 0 0-1.128-1.176c-.48-.288-1.032-.432-1.656-.432-.64 0-1.212.152-1.716.456a3.189 3.189 0 0 0-1.164 1.188A3.126 3.126 0 0 0 17.697 32H15.13c0-1.12.252-2.1.756-2.94a5.324 5.324 0 0 1 2.1-1.98c.888-.48 1.904-.72 3.048-.72 1.088 0 2.064.248 2.928.744a5.366 5.366 0 0 1 2.04 2.016c.504.856.756 1.832.756 2.928 0 .792-.104 1.464-.312 2.016a4.959 4.959 0 0 1-.936 1.536c-.416.472-.936.984-1.56 1.536l-5.808 5.184-.276-.72h8.892v2.388H15.07ZM35.765 44v-3.012h-7.8v-2.376l5.616-11.892h2.868l-5.616 11.892h4.932v-4.68h2.544v4.68h1.716v2.376H38.31V44h-2.544Z" fill="#fff"/></svg>