<svg width="31" height="31" fill="none" xmlns="http://www.w3.org/2000/svg"><path d="M26.422 4.546A15.367 15.367 0 0 0 15.484.016a15.367 15.367 0 0 0-10.938 4.53 15.367 15.367 0 0 0-4.53 10.938 15.37 15.37 0 0 0 4.53 10.938 15.367 15.367 0 0 0 10.938 4.53c4.132 0 8.017-1.608 10.938-4.53a15.367 15.367 0 0 0 4.531-10.938c0-4.132-1.609-8.017-4.53-10.938Zm-10.938 23.99c-7.196 0-13.051-5.856-13.051-13.052 0-7.197 5.855-13.052 13.051-13.052 7.197 0 13.052 5.855 13.052 13.052 0 7.196-5.855 13.052-13.052 13.052Zm2.317-12.362 4.397 4.375-1.705 1.713-4.45-4.427a2.417 2.417 0 0 1-1.828-4.408V4.91h2.417v8.447a2.417 2.417 0 0 1 1.169 2.817Z" fill="#E2E6E9"/></svg>