<svg width="25" height="24" fill="none" xmlns="http://www.w3.org/2000/svg"><g clip-path="url(#a)"><path d="M8.217 21.75c9.054 0 14.008-7.504 14.008-14.008 0-.211-.005-.427-.014-.638a10 10 0 0 0 2.456-2.549c-.898.4-1.85.66-2.827.773a4.95 4.95 0 0 0 2.166-2.722A9.897 9.897 0 0 1 20.88 3.8a4.93 4.93 0 0 0-8.394 4.49A13.984 13.984 0 0 1 2.339 3.15a4.93 4.93 0 0 0 1.524 6.57 4.93 4.93 0 0 1-2.23-.614v.06a4.922 4.922 0 0 0 3.95 4.829 4.893 4.893 0 0 1-2.222.084 4.934 4.934 0 0 0 4.598 3.422 9.875 9.875 0 0 1-7.292 2.037 13.969 13.969 0 0 0 7.55 2.212Z" fill="#fff"/></g><defs><clipPath id="a"><path fill="#fff" transform="translate(.667)" d="M0 0h24v24H0z"/></clipPath></defs></svg>