<svg width="225" height="126" fill="none" xmlns="http://www.w3.org/2000/svg"><path d="M86.082 72.211a3.36 3.36 0 0 1-2.108-.602 1.961 1.961 0 0 1-.796-1.643V58.335a.325.325 0 0 1 .367-.364h2.12c.24 0 .353.126.353.364v10.727c0 .477.215.715.657.715.187.008.374-.013.555-.062.253 0 .391.075.404.3l.19 1.57a.324.324 0 0 1-.17.351.33.33 0 0 1-.134.037c-.464.153-.95.233-1.438.238ZM98.01 70.87a5.967 5.967 0 0 1-3.787 1.353 5.967 5.967 0 0 1-3.787-1.354 5.003 5.003 0 0 1-1.462-3.532c0-1.323.526-2.592 1.462-3.532a5.992 5.992 0 0 1 7.573 0 5.078 5.078 0 0 1 1.426 3.526c0 1.314-.51 2.577-1.426 3.526v.012Zm-5.58-1.657a2.698 2.698 0 0 0 3.61 0 2.8 2.8 0 0 0 0-3.689 2.697 2.697 0 0 0-3.61 0 2.8 2.8 0 0 0 0 3.689Zm18.681-6.437c.24 0 .353.126.353.364v8.996a4.074 4.074 0 0 1-1.401 3.225 5.32 5.32 0 0 1-3.673 1.254 5.932 5.932 0 0 1-3.42-.94 3.77 3.77 0 0 1-1.654-2.51c0-.251 0-.364.341-.364h2.121a.468.468 0 0 1 .416.289c.138.38.412.698.77.89.437.224.922.337 1.414.327a2.244 2.244 0 0 0 1.628-.578 2.135 2.135 0 0 0 .593-1.568v-.79a4.244 4.244 0 0 1-2.625.815 4.924 4.924 0 0 1-3.585-1.367 5.003 5.003 0 0 1-1.419-3.488c0-1.302.509-2.552 1.419-3.488a4.958 4.958 0 0 1 3.585-1.355 4.257 4.257 0 0 1 2.688.865v-.2a.315.315 0 0 1 .015-.143.33.33 0 0 1 .339-.221l2.095-.013Zm-4.897 7.177a2.233 2.233 0 0 0 1.729-.74 3.065 3.065 0 0 0 0-3.764 2.22 2.22 0 0 0-1.717-.728 2.285 2.285 0 0 0-1.754.74 2.65 2.65 0 0 0-.682 1.882 2.698 2.698 0 0 0 .669 1.87 2.286 2.286 0 0 0 1.755.74Zm16.143.916a5.994 5.994 0 0 1-7.573 0 5.09 5.09 0 0 1-1.427-3.532 5.09 5.09 0 0 1 1.427-3.532 6.006 6.006 0 0 1 7.573 0 5.078 5.078 0 0 1 1.426 3.526 5.078 5.078 0 0 1-1.426 3.525v.013Zm-5.592-1.656a2.53 2.53 0 0 0 1.818.69 2.541 2.541 0 0 0 1.805-.69 2.84 2.84 0 0 0 0-3.689 2.537 2.537 0 0 0-1.805-.69 2.537 2.537 0 0 0-1.818.69 2.838 2.838 0 0 0 0 3.689Zm11.575-8.569a1.838 1.838 0 0 1-2.411 0 1.516 1.516 0 0 1 0-2.209 1.874 1.874 0 0 1 2.411 0 1.516 1.516 0 0 1 0 2.209Zm.265 11.568a3.41 3.41 0 0 1-2.108-.603 1.983 1.983 0 0 1-.783-1.643V63.14a.33.33 0 0 1 .219-.348.33.33 0 0 1 .147-.016h2.121c.24 0 .353.126.353.364v5.922c0 .477.215.716.644.716.191.006.383-.015.568-.063.252 0 .391.075.404.3l.189 1.57a.325.325 0 0 1-.303.389 4.805 4.805 0 0 1-1.451.238Zm9.555-9.737a4.974 4.974 0 0 1 3.61 1.355 5.13 5.13 0 0 1 1.389 3.507 5.13 5.13 0 0 1-1.389 3.507 4.926 4.926 0 0 1-3.61 1.368 4.361 4.361 0 0 1-2.638-.816v4.53c0 .238-.126.35-.366.35h-2.121a.303.303 0 0 1-.353-.35v-10.29a.65.65 0 0 0-.443-.714.66.66 0 0 0-.302-.026h-.416c-.278 0-.417-.1-.417-.301v-1.48a.402.402 0 0 1 .291-.415 3.8 3.8 0 0 1 1.363-.226 2.329 2.329 0 0 1 2.284 1.255 4.26 4.26 0 0 1 3.118-1.255Zm-1.969 6.738a2.405 2.405 0 0 0 1.742.74 2.428 2.428 0 0 0 1.742-.74 2.7 2.7 0 0 0 .694-1.92 2.666 2.666 0 0 0-.694-1.92 2.427 2.427 0 0 0-1.742-.739 2.42 2.42 0 0 0-1.742.74 2.766 2.766 0 0 0-.669 1.92c-.026.7.213 1.384.669 1.919Zm12.924 2.999a6.11 6.11 0 0 1-3.243-.778 3.068 3.068 0 0 1-1.465-2.221c0-.251.089-.376.367-.376h1.855a.48.48 0 0 1 .416.276c.266.677.96 1.016 2.07 1.016a2.38 2.38 0 0 0 1.124-.226.732.732 0 0 0 .429-.615c0-.326-.202-.552-.606-.702a6.86 6.86 0 0 0-1.477-.314 14.118 14.118 0 0 1-1.767-.314 2.912 2.912 0 0 1-1.477-.84 2.679 2.679 0 0 1 .543-3.89 5.225 5.225 0 0 1 3.055-.803 5.607 5.607 0 0 1 2.979.74 2.797 2.797 0 0 1 1.388 1.97c0 .251-.114.377-.341.377h-1.868a.39.39 0 0 1-.379-.226 1.253 1.253 0 0 0-.656-.665 2.23 2.23 0 0 0-1.085-.251c-.37-.02-.739.053-1.073.213a.629.629 0 0 0-.404.577.8.8 0 0 0 .606.74 6.86 6.86 0 0 0 1.502.377c.59.077 1.176.186 1.754.326.566.128 1.08.42 1.477.84a2.367 2.367 0 0 1 .618 1.72c.011.434-.091.863-.297 1.245a2.523 2.523 0 0 1-.876.938 5.546 5.546 0 0 1-3.169.866Zm17.684-.628a.336.336 0 0 1-.063.255.34.34 0 0 1-.227.134c-.461.15-.942.23-1.427.238a2.817 2.817 0 0 1-2.524-1.091 4.586 4.586 0 0 1-3.219 1.091 3.934 3.934 0 0 1-2.953-1.141 4.116 4.116 0 0 1-1.124-3.024V63.14c0-.238.114-.364.354-.364h2.12c.24 0 .354.126.354.364v4.53a2.212 2.212 0 0 0 .543 1.543 1.89 1.89 0 0 0 1.451.59 2.108 2.108 0 0 0 1.515-.553 1.998 1.998 0 0 0 .568-1.493V63.14c0-.238.113-.364.353-.364h2.146c.24 0 .353.126.353.364v5.91c0 .489.215.727.631.727a2.01 2.01 0 0 0 .581-.062.328.328 0 0 1 .416.3l.152 1.57Zm20.056 0a.318.318 0 0 1-.053.263.317.317 0 0 1-.237.126 4.932 4.932 0 0 1-1.452.239 3.387 3.387 0 0 1-2.108-.603 1.953 1.953 0 0 1-.845-1.644v-2.948a2.212 2.212 0 0 0-.531-1.543 1.786 1.786 0 0 0-1.413-.59 1.585 1.585 0 0 0-1.262.552c-.334.42-.504.946-.48 1.48v4.63c0 .239-.114.364-.353.364h-2.134a.33.33 0 0 1-.272-.093.326.326 0 0 1-.094-.27v-4.53a2.31 2.31 0 0 0-.492-1.543 1.643 1.643 0 0 0-1.262-.59 1.842 1.842 0 0 0-1.388.552 2.065 2.065 0 0 0-.518 1.48v4.63a.33.33 0 0 1-.094.271.326.326 0 0 1-.272.093h-2.057c-.24 0-.354-.125-.354-.363v-5.91a.649.649 0 0 0-.443-.714.658.658 0 0 0-.301-.026h-.417c-.278 0-.417-.1-.417-.301v-1.48a.402.402 0 0 1 .291-.415 3.8 3.8 0 0 1 1.363-.226 2.372 2.372 0 0 1 2.247 1.154 4.286 4.286 0 0 1 3.206-1.154 3.638 3.638 0 0 1 2.991 1.33 4.167 4.167 0 0 1 3.307-1.33 4.009 4.009 0 0 1 2.991 1.142 4.078 4.078 0 0 1 1.124 3.024v2.421c0 .477.214.716.618.716.196.009.392-.013.581-.063.261 0 .399.1.416.3l.114 1.57ZM38.85 61.146a17.168 17.168 0 0 1 6.127-9.386 17.345 17.345 0 0 1 10.642-3.644c3.857 0 7.603 1.283 10.642 3.644a17.167 17.167 0 0 1 6.126 9.386h-1.514a12.282 12.282 0 0 0-7.157 2.17 3.606 3.606 0 0 1-.379.238h-.177a3.615 3.615 0 0 1-.378-.238 12.892 12.892 0 0 0-7.163-2.171c-2.552 0-5.045.756-7.163 2.171a3.615 3.615 0 0 1-.379.238h-.176a3.606 3.606 0 0 1-.379-.238 12.283 12.283 0 0 0-7.157-2.17h-1.514Zm29.296 7.866a4.27 4.27 0 0 1 2.727-.89h2.032v-4.028h-2.032a8.087 8.087 0 0 0-4.835 1.53 4.612 4.612 0 0 1-5.452 0 8.62 8.62 0 0 0-9.808 0 4.612 4.612 0 0 1-5.452 0 8.087 8.087 0 0 0-4.898-1.53h-2.095v4.028h2.032a4.27 4.27 0 0 1 2.727.89 8.593 8.593 0 0 0 9.794 0 4.296 4.296 0 0 1 2.727-.89 4.245 4.245 0 0 1 2.726.89 8.618 8.618 0 0 0 9.807 0Zm0 7.202a4.27 4.27 0 0 1 2.727-.89h2.032v-4.028h-2.032a8.086 8.086 0 0 0-4.835 1.53 4.612 4.612 0 0 1-5.452 0 8.62 8.62 0 0 0-9.808 0 4.612 4.612 0 0 1-5.452 0 8.087 8.087 0 0 0-4.898-1.53h-2.095v4.027h2.032a4.27 4.27 0 0 1 2.727.891 8.593 8.593 0 0 0 9.794 0 4.296 4.296 0 0 1 2.727-.89 4.245 4.245 0 0 1 2.726.89 8.618 8.618 0 0 0 9.807 0Z" fill="#1E1B1B"/></svg>