<svg width="226" height="127" fill="none" xmlns="http://www.w3.org/2000/svg"><path d="M81.25 56.031h3.807v15.365H81.25V56.031Zm5.317 9.564c0-3.8 2.335-6.068 5.939-6.068s5.939 2.268 5.939 6.068-2.284 6.08-5.94 6.08c-3.654 0-5.938-2.217-5.938-6.08Zm8.058 0c0-2.09-.825-3.319-2.12-3.319-1.293 0-2.106 1.267-2.106 3.319s.8 3.293 2.107 3.293c1.307 0 2.119-1.165 2.119-3.28v-.013Zm5.254 6.549h3.654a1.963 1.963 0 0 0 2.056 1.14c1.447 0 2.208-.785 2.208-1.926V69.23h-.076a3.6 3.6 0 0 1-3.464 2.078c-2.78 0-4.62-2.116-4.62-5.751 0-3.636 1.752-5.928 4.67-5.928a3.648 3.648 0 0 1 3.503 2.229v-2.115h3.807V71.27c0 2.774-2.45 4.497-6.066 4.497-3.363 0-5.457-1.508-5.672-3.61v-.013Zm7.931-6.562c0-1.85-.851-3.015-2.196-3.015-1.345 0-2.17 1.153-2.17 3.015s.813 2.914 2.17 2.914c1.358 0 2.196-1.026 2.196-2.901v-.013Zm5.241 0c0-3.8 2.334-6.067 5.938-6.067 3.604 0 5.952 2.267 5.952 6.067 0 3.8-2.284 6.08-5.952 6.08-3.667 0-5.938-2.204-5.938-6.067v-.013Zm8.058 0c0-2.09-.825-3.319-2.12-3.319-1.294 0-2.043 1.28-2.043 3.345 0 2.064.8 3.293 2.094 3.293 1.294 0 2.069-1.178 2.069-3.293v-.026Zm5.278-8.6a1.94 1.94 0 0 1 2.275-1.96 1.94 1.94 0 0 1 1.476 2.612 1.945 1.945 0 0 1-1.771 1.234 1.857 1.857 0 0 1-1.831-1.12 1.856 1.856 0 0 1-.149-.742v-.025Zm0 2.786h3.807v11.628h-3.807V59.768Zm17.627 5.814c0 3.8-1.688 5.966-4.581 5.966a3.633 3.633 0 0 1-3.554-2.153h-.076v5.726h-3.807V59.743h3.807v2.077h.076a3.639 3.639 0 0 1 3.528-2.242c2.919.05 4.657 2.23 4.657 6.03l-.05-.026Zm-3.807 0c0-1.85-.851-3.027-2.183-3.027-1.332 0-2.183 1.19-2.195 3.027-.013 1.837.863 3.015 2.195 3.015 1.332 0 2.183-1.153 2.183-2.99v-.025Zm10.342-6.08c3.16 0 5.076 1.495 5.165 3.889h-3.465c0-.824-.685-1.343-1.738-1.343-1.054 0-1.523.405-1.523 1 0 .596.419.786 1.269.963l2.436.494c2.323.494 3.312 1.432 3.312 3.193 0 2.406-2.195 3.952-5.431 3.952s-5.355-1.546-5.52-3.914h3.667c.115.861.8 1.368 1.917 1.368 1.116 0 1.624-.368 1.624-.976s-.355-.734-1.269-.924l-2.195-.47c-2.272-.468-3.465-1.671-3.465-3.445.026-2.28 2.069-3.762 5.216-3.762v-.025Zm18.159 11.87h-3.668v-2.167h-.076a3.315 3.315 0 0 1-3.375 2.42 4.052 4.052 0 0 1-4.04-2.67 4.031 4.031 0 0 1-.224-1.7v-7.512h3.807v6.637c0 1.38.711 2.116 1.891 2.116a1.94 1.94 0 0 0 1.929-2.192v-6.562h3.807l-.051 11.63Zm1.84-11.63h3.68v2.243h.076a3.371 3.371 0 0 1 3.312-2.458 3.03 3.03 0 0 1 3.236 2.533h.076a3.583 3.583 0 0 1 3.579-2.533 3.7 3.7 0 0 1 2.785 1.13 3.688 3.688 0 0 1 1.021 2.822v7.917h-3.806v-6.903c0-1.267-.571-1.85-1.637-1.85a1.67 1.67 0 0 0-1.259.56 1.659 1.659 0 0 0-.404 1.315v6.878h-3.616v-6.954c0-1.165-.571-1.799-1.612-1.799a1.704 1.704 0 0 0-1.622 1.191c-.072.23-.094.471-.066.71v6.852h-3.807l.064-11.654Zm-99.945-3.014a16.78 16.78 0 0 0-2.537-4.08 17.193 17.193 0 0 0-25.64-1.071 17.133 17.133 0 0 0-4.778 13.207c.183 2.413.875 4.76 2.033 6.887a17.15 17.15 0 0 0 4.68 5.451c1.237.96 2.605 1.74 4.06 2.318a17.018 17.018 0 0 0 6.435 1.267 17.223 17.223 0 0 0 12.138-5.04 17.161 17.161 0 0 0 5.03-12.124 16.936 16.936 0 0 0-1.42-6.815Zm-15.76-6.879c1.981 0 3.94.433 5.736 1.267-.438.19-.9.321-1.37.393a7.276 7.276 0 0 0-4.1 2.05 7.254 7.254 0 0 0-2.055 4.094 3.797 3.797 0 0 1-1.122 2.289 3.81 3.81 0 0 1-2.317 1.067 7.276 7.276 0 0 0-4.1 2.051 7.253 7.253 0 0 0-2.055 4.093 3.683 3.683 0 0 1-1.002 2.204 13.66 13.66 0 0 1 .81-13.174 13.695 13.695 0 0 1 4.975-4.667 13.724 13.724 0 0 1 6.613-1.692l-.013.026ZM44.348 72.41c.153-.138.305-.265.457-.417a6.937 6.937 0 0 0 2.056-4.092 3.697 3.697 0 0 1 1.104-2.305 3.594 3.594 0 0 1 2.297-1.09 7.276 7.276 0 0 0 4.1-2.05 7.254 7.254 0 0 0 2.054-4.093 3.696 3.696 0 0 1 1.104-2.42 3.645 3.645 0 0 1 2.323-1.05 6.959 6.959 0 0 0 3.807-1.812 13.32 13.32 0 0 1 2.994 3.521 1.087 1.087 0 0 1-.165.178 3.645 3.645 0 0 1-2.296 1.114 7.25 7.25 0 0 0-4.105 2.047 7.228 7.228 0 0 0-2.05 4.097 3.797 3.797 0 0 1-1.1 2.305 3.81 3.81 0 0 1-2.313 1.09 7.309 7.309 0 0 0-4.117 2.047 7.292 7.292 0 0 0-2.076 4.096 3.973 3.973 0 0 1-.622 1.736 13.812 13.812 0 0 1-3.452-2.901Zm10.495 4.89a13.78 13.78 0 0 1-3.807-.532 7.311 7.311 0 0 0 .812-2.533 3.809 3.809 0 0 1 3.4-3.395 7.276 7.276 0 0 0 4.108-2.048 7.253 7.253 0 0 0 2.06-4.096 3.798 3.798 0 0 1 1.096-2.3 3.81 3.81 0 0 1 2.305-1.094 7.254 7.254 0 0 0 3.249-1.267 13.683 13.683 0 0 1-2.383 11.84 13.726 13.726 0 0 1-4.797 3.937 13.752 13.752 0 0 1-6.043 1.425v.063Z" fill="#1E1B1B"/></svg>